<?xml version="1.0" encoding="UTF-8" standalone="no"?>
<svg width="290px" height="73px" viewBox="0 0 290 73" version="1.1" xmlns="http://www.w3.org/2000/svg" xmlns:xlink="http://www.w3.org/1999/xlink" xmlns:sketch="http://www.bohemiancoding.com/sketch/ns">
    <!-- Generator: bin/sketchtool 1.4 (305) - http://www.bohemiancoding.com/sketch -->
    <title>ISL LOGO - blue</title>
    <desc>Created with bin/sketchtool.</desc>
    <defs></defs>
    <g id="Welcome" stroke="none" stroke-width="1" fill="none" fill-rule="evenodd" sketch:type="MSPage">
        <g id="ISL-Home-1" sketch:type="MSArtboardGroup" transform="translate(-578.000000, -20.000000)" fill="#2B5990">
            <g id="Header-1" sketch:type="MSLayerGroup">
                <g id="ISL-LOGO---blue" transform="translate(578.146936, 20.472530)" sketch:type="MSShapeGroup">
                    <path d="M16.85558,6.81449823 C16.5755869,6.75864169 16.2955939,6.70278514 16.0156009,6.53521551 C16.6315855,6.2559328 17.2475702,5.92079354 17.8635548,5.52979774 C18.4795395,5.13880194 19.0395255,4.80366269 19.6555102,4.46852343 C21.1114739,3.74238837 22.5674376,3.1279664 24.0793999,2.56940097 C26.6553357,1.61983974 29.2872702,0.949561229 31.9752032,0.614421971 C33.2071725,0.446852343 34.4391418,0.3909958 35.7271097,0.335139257 C36.0071027,0.335139257 36.5110901,0.279282714 37.1270748,0.223426171 C37.7430594,0.167569629 38.3590441,0.167569629 38.9750287,0.167569629 C39.5910134,0.167569629 39.9830036,0.279282714 40.2629966,0.446852343 C40.5989883,0.7819916 40.7109855,1.11713086 40.5989883,1.39641357 C40.4869911,1.67569629 40.3189952,1.89912246 39.9830036,2.12254863 C39.7030106,2.29011826 39.4230176,2.45768789 39.1990232,2.51354443 C38.9750287,2.62525751 38.9190301,2.84868369 38.9750287,3.07210986 C39.0310273,3.29553603 39.1990232,3.57481874 39.367019,3.85410146 C39.5350148,4.13338417 39.7030106,4.41266689 39.7590092,4.6919496 C39.8710064,5.02708886 39.8150078,5.25051503 39.5910134,5.41808466 C39.367019,5.58565429 39.1430245,5.64151083 38.8630315,5.69736737 C38.5830385,5.75322391 38.3030455,5.80908046 38.1350497,5.80908046 C37.6310622,5.864937 37.1830734,6.08836317 36.9030804,6.36764589 C36.6230873,6.6469286 36.3430943,7.0379244 35.9511041,7.4289202 C36.2870957,7.31720711 36.6790859,7.20549403 37.1270748,7.0379244 C37.5750636,6.87035477 37.9670539,6.81449823 38.4150427,6.75864169 C38.8630315,6.75864169 39.1990232,6.87035477 39.4790162,7.09378094 C39.0310273,7.31720711 38.5830385,7.59648983 38.0790511,7.87577254 C37.6310622,8.15505526 37.2950706,8.54605106 37.1270748,9.04875994 L38.8630315,9.04875994 C38.4710413,9.27218611 38.0790511,9.49561229 37.5750636,9.774895 C37.0710762,9.99832117 36.6230873,10.3334604 36.1750985,10.6127431 C35.7271097,10.9478824 35.4471166,11.2830217 35.3351194,11.6740175 C35.1671236,12.0091567 34.8871306,12.2884394 34.4951404,12.4560091 C34.1031501,12.6235787 33.7111599,12.7911483 33.3191697,12.9587179 C32.9271794,13.1821441 32.703185,13.4614268 32.5911878,13.9082792 C32.5351892,14.4109881 32.423192,14.9695535 32.3671934,15.5281189 C32.2551962,16.0866843 32.0872004,16.5335367 31.863206,16.8128194 C31.5832129,17.1479587 31.1352241,17.1479587 30.4632408,16.9245325 C29.6792604,16.5893932 29.0632757,16.1425409 28.6152869,15.639832 C28.1672981,15.1371231 27.7193092,14.4668446 27.2153218,13.7965661 C27.8313064,13.5731399 28.4472911,13.3497137 29.0632757,13.1821441 C29.2872702,13.070431 29.2872702,12.9587179 29.1192743,12.7352918 C28.9512785,12.5118656 28.7272841,12.4001525 28.5032897,12.4001525 C27.7753078,12.4001525 27.327319,12.1767263 27.1033246,11.729874 C26.8793302,11.2830217 26.8233316,10.7803128 26.8233316,10.1658908 C26.3193441,10.3334604 25.7593581,10.5010301 25.199372,10.6685997 C25.3113692,10.2776039 25.3673678,9.88660809 25.479365,9.49561229 C25.0313762,9.49561229 24.8073818,9.43975574 24.6953846,9.21632957 C24.5833874,8.9929034 24.4153916,8.76947723 24.1913971,8.54605106 C23.9114041,8.32262489 23.7434083,8.15505526 23.5754125,8.04334217 C23.4634153,7.93162909 23.1834223,7.819916 22.7354334,7.70820291 C22.511439,7.65234637 22.3434432,7.54063329 22.231446,7.48477674 C22.1754474,7.37306366 22.0634502,7.31720711 21.951453,7.26135057 C21.8394558,7.20549403 21.6714599,7.20549403 21.4474655,7.31720711 C20.5514879,7.54063329 19.5995116,7.819916 18.7035339,8.04334217 C19.0395255,7.54063329 19.4315158,7.0379244 19.7675074,6.59107206 C18.8155311,6.6469286 17.8635548,6.70278514 16.85558,6.81449823" id="Shape"></path>
                    <path d="M59.8065096,8.26676834 C59.5825152,8.71362069 59.4145194,9.04875994 59.3585208,9.27218611 C59.3025222,9.49561229 59.3025222,9.774895 59.3585208,9.99832117 C59.4145194,10.2776039 59.5265166,10.6127431 59.6945124,11.0595955 C59.8625082,11.5623044 59.8065096,12.0091567 59.5825152,12.344296 C59.3025222,12.7352918 59.0225291,13.1262876 58.7425361,13.5731399 C58.6865375,13.4614268 58.6305389,13.2380007 58.5185417,12.9587179 C58.4065445,12.6794352 58.2945473,12.4001525 58.1825501,12.1208698 C58.0705529,11.8415871 58.0145543,11.729874 57.9025571,11.729874 C57.0065794,11.9533002 56.1666003,12.1767263 55.3266212,12.4001525 C55.3826199,12.2325829 55.4386185,12.0650133 55.4946171,11.8415871 C55.4946171,11.6181609 55.5506157,11.4505913 55.6626129,11.2830217 C55.5506157,11.2830217 55.4386185,11.3388782 55.2706226,11.3388782 L54.8786324,11.3388782 C54.8226338,10.7803128 55.0466282,10.3334604 55.4946171,10.0541777 C55.9426059,9.774895 56.3905947,9.55146883 56.8945822,9.32804266 C56.5585905,9.04875994 56.4465933,8.76947723 56.6145891,8.49019451 C56.7265864,8.2109118 56.8945822,7.98748563 57.1745752,7.70820291 C57.4545682,7.4289202 57.622564,7.14963749 57.7345612,6.87035477 C58.4065445,7.37306366 59.1345264,7.819916 59.8065096,8.26676834" id="Shape"></path>
                    <path d="M62.2704482,12.2884394 C62.6624384,11.8974436 63.0544287,11.8415871 63.5584161,12.1767263 C64.0064049,12.5118656 64.4543938,12.9587179 64.9023826,13.5172834 C65.3503715,14.0758488 65.6863631,14.5785577 65.9663561,14.9136969 C66.4143449,15.639832 66.8623338,16.3659671 67.3103226,17.0921021 C67.3663212,17.3155283 67.3103226,17.4830979 67.0863282,17.7065241 C66.8623338,17.9299503 66.6383394,18.0975199 66.5823408,18.3209461 C66.4703435,18.6560853 66.4703435,18.9912246 66.5823408,19.2705073 C66.694338,19.4939335 66.8623338,19.8290727 67.0863282,20.164212 C66.3023477,20.2200685 65.7983603,20.4993512 65.5743659,21.0020601 C65.3503715,21.504769 65.2943728,22.119191 65.4063701,22.7894695 C65.126377,22.4543302 64.7903854,22.0633344 64.3983952,21.504769 C64.0064049,21.0020601 63.6144147,20.6669209 63.2224245,20.4993512 C63.1664259,20.4993512 62.9984301,20.5552078 62.8304342,20.6669209 C62.6624384,20.7786339 62.4944426,20.7786339 62.3264468,20.7786339 C61.6544636,20.6110643 60.9824803,20.4434947 60.3664957,20.2200685 C60.4224943,20.7227774 60.5904901,21.0579167 60.8704831,21.2813428 C61.1504761,21.504769 61.3744705,21.6723386 61.598465,21.8957648 C61.8224594,22.119191 61.878458,22.5101868 61.7664608,23.0128957 C61.4864677,22.6218999 61.1504761,22.1750475 60.8144845,21.8399083 C60.4784929,21.4489125 60.0865026,21.1696297 59.6385138,21.0020601 C59.3025222,20.890347 58.9665305,20.7786339 58.5185417,20.7786339 C58.0705529,20.7786339 57.7905598,20.890347 57.5665654,21.1696297 C57.342571,21.504769 57.1745752,21.7281952 57.0065794,21.8957648 C56.8385836,22.0633344 56.5585905,22.2309041 56.2225989,22.2867606 C55.7746101,22.3984737 55.5506157,22.6218999 55.4946171,22.9011826 C55.4386185,23.1804653 55.4386185,23.5714611 55.4386185,24.07417 C55.3826199,24.4093092 55.1586254,24.6885919 54.8226338,24.9678747 C54.4866422,25.2471574 54.0946519,25.4705835 53.6466631,25.6940097 C53.1986743,25.9174359 52.8626826,26.0850055 52.5826896,26.2525751 C52.3586952,26.4201448 52.1347008,26.5318579 52.0227036,26.4760013 C51.8547078,26.4201448 51.686712,26.3084317 51.4067189,26.1967186 C51.1267259,26.029149 51.0147287,25.9174359 51.0147287,25.8615793 C51.0147287,25.8057228 51.1267259,25.6940097 51.1827245,25.5822966 C51.2947217,25.4705835 51.3507203,25.3030139 51.2947217,25.0795877 C51.2387231,24.9120181 51.1267259,24.6327354 51.0147287,24.2975961 C50.9027315,23.9624569 50.9027315,23.7390307 50.9587301,23.6831742 C51.686712,23.459748 52.4146938,23.1804653 53.1426757,22.9570391 C53.4786673,22.7894695 53.6466631,22.5660433 53.6466631,22.1750475 C53.5906645,21.7840517 53.4786673,21.3930559 53.2546729,21.0020601 C53.0306785,20.6110643 52.806684,20.3876381 52.5826896,20.2759251 C52.806684,20.1083554 53.1426757,19.8849293 53.5906645,19.54979 C54.0386533,19.2146507 54.4866422,18.8795115 54.8786324,18.5443722 C55.2706226,18.209233 55.4386185,17.9299503 55.3826199,17.7065241 C55.3826199,17.4830979 55.4946171,17.2038152 55.8866073,16.8686759 C56.2785975,16.5893932 56.5585905,16.3101105 56.782585,16.1425409 C57.0065794,15.9191147 57.062578,15.6956885 57.062578,15.4164058 C57.062578,15.1371231 57.0065794,14.8578404 57.0065794,14.5785577 C57.3985696,14.9136969 57.8465584,15.1371231 58.3505459,15.2488362 C58.8545333,15.3605493 59.3585208,15.3046927 59.8625082,15.1929797 C59.9185068,15.1929797 59.9745054,15.1929797 59.9745054,15.1371231 C60.4784929,15.02541 60.9264817,14.8019839 61.3184719,14.5785577 C61.3744705,14.5785577 61.4304691,14.5785577 61.4304691,14.5227011 C61.4864677,14.4668446 61.4864677,14.4109881 61.4864677,14.4109881 C61.5424663,14.3551315 61.6544636,14.2434184 61.7664608,14.1875619 C62.0464538,13.9082792 62.2144496,13.6289965 62.2704482,13.2380007 C62.2144496,12.9587179 62.2144496,12.6235787 62.2704482,12.2884394" id="Shape"></path>
                    <path d="M43.3429199,12.0091567 C43.2309227,12.4001525 43.0069283,12.6235787 42.614938,12.7352918 C42.2229478,12.7911483 41.8309576,12.7911483 41.4389673,12.6235787 C41.0469771,12.4560091 40.7669841,12.2325829 40.5429897,11.9533002 C40.9909785,12.0091567 41.3269701,11.9533002 41.4389673,11.6740175 C41.6069631,11.4505913 41.8309576,11.2271651 42.1669492,11.115452 C43.0629269,10.9478824 43.9589045,10.7803128 44.8548822,10.5568866 C44.7988836,11.0037389 44.6308878,11.2830217 44.3508948,11.5064478 C44.0149031,11.6181609 43.6789115,11.8415871 43.3429199,12.0091567" id="Shape"></path>
                    <path d="M49.4467678,17.7065241 C49.7827594,17.8740937 50.1747496,18.0416633 50.5107413,18.209233 C50.118751,18.4885157 49.7827594,18.7677984 49.4467678,19.0470811 L49.4467678,17.7065241" id="Shape"></path>
                    <path d="M51.966705,16.980389 C51.4067189,16.8128194 50.9587301,16.5335367 50.5667399,16.1425409 C50.1747496,15.7515451 50.1747496,15.2488362 50.4547427,14.6344142 C50.6787371,14.9136969 50.9587301,15.1929797 51.2947217,15.5839755 C51.5747147,15.9191147 51.9107064,16.1983974 52.246698,16.4218236 C52.5826896,16.6452498 52.9746799,16.7011063 53.3666701,16.6452498 C52.9186813,17.2596717 52.526691,17.8740937 52.0787022,18.4885157 C52.0787022,17.9858068 52.0227036,17.4830979 51.966705,16.980389" id="Shape"></path>
                    <path d="M61.1504761,27.2021364 C61.878458,27.2021364 62.6064398,27.2021364 63.3344217,27.1462798 C64.0624035,27.0904233 64.7903854,27.0904233 65.4623687,27.0904233 C65.7983603,27.0345667 66.1343519,26.8669971 66.4143449,26.6994275 C66.4703435,26.6994275 66.5263421,26.6435709 66.5263421,26.6435709 C66.8623338,26.4201448 67.0863282,26.2525751 67.3103226,26.029149 C67.8703087,25.6940097 68.3182975,25.5822966 68.7102877,25.6940097 C69.102278,25.8057228 69.382271,26.029149 69.662264,26.4201448 C69.8862584,26.8111406 70.1662514,27.2021364 70.3902459,27.7048453 C70.8942333,28.7661196 71.2862235,29.8273939 71.6782138,30.9445247 C72.4621942,33.2904995 72.9101831,35.6923309 72.9661817,38.1500188 C72.9661817,40.7194197 72.63019,43.2329642 71.8462096,45.7465086 C71.0622291,48.260053 69.8862584,50.5501713 68.3742961,52.6168634 C68.3742961,52.170011 68.3182975,51.6114456 68.3182975,50.9411671 C68.3182975,50.3267451 68.2063003,49.8240362 68.0383045,49.4330404 C67.9263073,49.3213273 67.7583114,49.2654708 67.534317,49.2654708 C67.254324,49.3213273 67.1423268,49.2096143 67.0863282,49.0420446 C67.0303296,48.3717661 66.974331,47.7573441 66.8623338,47.1429222 C66.7503366,46.6402133 66.5263421,46.1375044 66.3023477,45.5230824 C66.0783533,44.9086605 65.7983603,44.4059516 65.4623687,44.0149558 C65.3503715,43.9032427 65.1823756,43.8473861 64.9583812,43.9032427 C64.7903854,43.9032427 64.6783882,43.8473861 64.566391,43.62396 C64.3423966,42.8419684 64.1744008,42.0599768 64.0064049,41.3338417 C63.8944077,40.7752763 63.8384091,40.2725674 63.7264119,39.8815716 C63.6704133,39.4347193 63.3344217,39.2671496 62.7744356,39.3230062 C61.3744705,39.4905758 59.9185068,39.6581454 58.4625431,39.8257151 C58.0705529,39.9374281 57.7345612,40.1608543 57.4545682,40.5518501 C57.1185766,40.9428459 56.7265864,41.1662721 56.2785975,41.3338417 C55.7186115,41.4455548 55.1026268,41.3338417 54.5426408,41.1104155 C53.9266561,40.8869894 53.4226687,40.5518501 52.9746799,40.1049978 C52.8626826,39.9374281 52.7506854,39.7698585 52.6946868,39.4905758 C52.6386882,39.2671496 52.526691,39.1554365 52.3586952,39.1554365 C51.966705,39.2112931 51.7427106,39.2112931 51.5747147,39.2112931 C51.4627175,39.2112931 51.2947217,38.9878669 51.1267259,38.7085842 C50.7907343,38.2058753 50.5107413,37.6473099 50.1747496,37.144601 C50.118751,37.0328879 50.1747496,36.9211748 50.2867468,36.8094617 C50.3987441,36.6977487 50.5107413,36.5860356 50.6227385,36.4184659 C50.7347357,36.3067529 50.7347357,36.1950398 50.6227385,36.0274701 C50.2307482,35.5806178 50.0627524,35.3013351 50.118751,35.0220524 C50.1747496,34.7986262 50.2867468,34.5193435 50.3987441,34.2959173 C50.5107413,34.0724911 50.5107413,33.7373519 50.3427454,33.2904995 C50.1747496,32.8995037 50.2867468,32.5643645 50.5107413,32.3409383 C50.7347357,32.1175121 51.0147287,31.894086 51.3507203,31.6148033 C51.6307133,31.3355205 51.7987092,31.0003813 51.7427106,30.6093855 C51.686712,30.1066766 51.9107064,29.5481112 52.4146938,29.0454023 C52.9186813,28.5426934 53.4786673,28.0399845 54.1506506,27.6489887 C54.8226338,27.2021364 55.3826199,26.8669971 55.8306087,26.6435709 C56.2225989,26.3642882 56.6145891,26.1408621 57.1185766,25.8615793 C57.5665654,25.5822966 58.0705529,25.414727 58.5185417,25.3588705 C59.0785277,25.3030139 59.5265166,25.5264401 59.9185068,25.9174359 C60.3664957,26.3084317 60.7584859,26.755284 61.1504761,27.2021364" id="Shape"></path>
                    <path d="M68.4862933,23.459748 C68.1503017,23.0687522 67.81431,22.7336129 67.4223198,22.3984737 C67.7023128,22.1750475 67.9823059,21.9516213 68.3182975,21.6723386 C68.6542891,21.3371994 68.9342821,21.1696297 69.0462793,21.0579167 C69.2142752,21.0579167 69.3262724,21.1696297 69.4942682,21.4489125 C69.662264,21.7281952 69.7742612,22.0074779 69.8862584,22.3984737 C69.9982556,22.7336129 70.1102528,23.0128957 70.1662514,23.1246087 C69.6062654,23.1804653 69.0462793,23.3480349 68.4862933,23.459748" id="Shape"></path>
                    <path d="M20.2154962,13.4055703 C20.4394906,13.9641357 20.7194837,14.299275 20.9994767,14.5227011 C21.2794697,14.6902708 21.6154613,14.8019839 22.0634502,14.8019839 C22.4554404,14.8019839 22.9594278,14.8019839 23.5754125,14.8578404 C23.1834223,15.4164058 22.8474306,15.8074016 22.511439,15.9191147 C22.231446,16.0308278 21.7274585,16.1425409 20.9994767,16.1983974 C21.0554753,16.6452498 21.2234711,16.9245325 21.5594627,17.1479587 C21.8394558,17.3713848 22.1754474,17.594811 22.511439,17.7623806 C22.0634502,18.209233 21.6714599,18.6002288 21.2794697,19.0470811 C20.9994767,18.7119419 20.6634851,18.4326591 20.103499,18.2650895 C19.5995116,18.0975199 19.0395255,17.9858068 18.4795395,17.8740937 C17.9195534,17.8182372 17.415566,17.7065241 17.0235758,17.6506675 C17.2475702,17.3713848 17.3595674,17.1479587 17.3035688,17.0362456 C17.3035688,16.8686759 17.2475702,16.7569629 17.135573,16.5893932 C17.0795744,16.4776801 17.0235758,16.3101105 17.0795744,16.0866843 C17.2475702,15.5281189 17.3035688,15.0812666 17.3035688,14.8019839 C17.3035688,14.5227011 16.9675772,14.299275 16.3515925,14.1317053 C16.5755869,13.7407095 16.7435827,13.4614268 16.85558,13.2938572 C16.9675772,13.1262876 17.2475702,13.070431 17.695559,13.1262876 C18.5915367,13.2380007 19.3755172,13.2938572 20.2154962,13.4055703" id="Shape"></path>
                    <path d="M12.9916762,14.0758488 C12.7676818,14.2434184 12.5436874,14.299275 12.319693,14.299275 C12.0956986,14.299275 11.9277028,14.1875619 11.7037083,14.0199923 C11.5357125,13.9082792 11.2557195,13.9641357 10.9757265,14.0758488 C10.6957335,14.2434184 10.471739,14.4109881 10.2477446,14.5227011 C10.0797488,14.0758488 9.911753,13.6289965 9.74375718,13.2380007 C9.63175997,12.9587179 9.63175997,12.8470049 9.63175997,12.7911483 C9.63175997,12.7352918 9.74375718,12.6794352 9.79975579,12.6794352 C9.911753,12.6794352 9.9677516,12.5677221 10.0797488,12.4001525 C10.191746,12.0091567 10.3597418,11.6181609 10.5837363,11.2271651 C11.0317251,10.6685997 11.5357125,10.2217473 12.1516972,9.94246463 C12.1516972,10.2217473 12.1516972,10.5010301 12.319693,10.7244562 C12.4316902,10.9478824 12.599686,11.0595955 12.879679,11.115452 C12.4876888,11.6181609 12.2076958,12.0091567 12.0397,12.2884394 C11.8717042,12.5677221 11.8717042,12.7911483 12.0397,13.0145745 C12.1516972,13.2938572 12.4876888,13.6289965 12.9916762,14.0758488" id="Shape"></path>
                    <path d="M13.9436525,19.54979 C13.9996511,19.6056465 13.9996511,19.7173596 13.8876539,19.7732162 C13.8876539,19.8290727 13.8316553,19.8849293 13.8316553,19.9407858 C13.7756567,19.9407858 13.7196581,19.9407858 13.7196581,19.9966423 L13.6636595,19.9966423 C13.4956637,20.0524989 13.3836665,20.0524989 13.3276679,19.9966423 C13.1036735,19.6615031 13.1036735,19.4380769 13.3836665,19.3263638 C13.4396651,19.3263638 13.4956637,19.2705073 13.4956637,19.2705073 C13.4956637,19.2705073 13.5516623,19.2146507 13.6076609,19.2146507 C13.7756567,19.2705073 13.8876539,19.3822204 13.9436525,19.54979" id="Shape"></path>
                    <path d="M19.0955241,20.3876381 C19.543513,20.5552078 19.9915018,20.6110643 20.2714948,20.6669209 C20.6074865,20.7227774 20.9434781,20.9462036 21.3354683,21.2813428 C21.5594627,21.504769 21.8954544,21.5606255 22.1754474,21.4489125 C22.511439,21.3371994 22.7354334,21.1696297 22.9034292,20.9462036 C23.1274237,20.890347 23.2394209,20.7227774 23.3514181,20.5552078 C23.5754125,20.6669209 23.7434083,20.890347 23.9114041,21.1696297 C24.0793999,21.4489125 24.3033944,21.7281952 24.5273888,22.0074779 C24.7513832,22.2867606 24.9753776,22.4543302 25.199372,22.4543302 C25.5353637,22.4543302 25.7593581,22.5101868 25.9273539,22.5101868 C26.1513483,22.5101868 26.3193441,22.6777564 26.4873399,22.9570391 C26.6553357,23.2921784 26.8233316,23.459748 26.9913274,23.5714611 C27.1593232,23.6831742 27.4393162,23.5714611 27.7753078,23.2921784 C27.8313064,23.7390307 27.887305,24.07417 27.9993023,24.4651658 C28.1112995,24.8561616 28.3912925,25.1354443 28.7832827,25.3030139 C27.7753078,25.6940097 26.8233316,26.029149 25.8153567,26.4201448 C25.7593581,25.9732924 25.7033595,25.4705835 25.6473609,25.0237312 C24.8073818,25.6940097 23.9674027,26.3642882 23.1274237,26.9787102 C23.4634153,27.3138495 23.7434083,27.4255625 23.9674027,27.369706 C24.1913971,27.3138495 24.4713902,27.3138495 24.8073818,27.369706 C25.199372,27.5372756 25.479365,27.6489887 25.7033595,27.8165583 C25.9273539,27.984128 26.2633455,27.9282714 26.6553357,27.6489887 C26.0393511,27.8724149 25.6473609,28.3192672 25.5353637,28.9336892 C25.2553706,28.4868369 24.919379,28.3751238 24.639386,28.4868369 C24.359393,28.5985499 24.0793999,28.8219761 23.8554055,29.2129719 C23.5754125,29.5481112 23.3514181,29.8832504 23.1274237,30.1625331 C23.0154264,30.3301028 23.0154264,30.4976724 23.1274237,30.7210986 C23.2394209,30.9445247 23.1834223,31.1679509 23.0714251,31.3355205 C22.4554404,31.8382294 21.8954544,32.3409383 21.2794697,32.8436472 C20.7194837,33.3463561 20.3274934,33.9607781 20.0475004,34.7427697 C19.823506,35.4689047 19.6555102,36.2508963 19.6555102,37.0328879 C19.6555102,37.8148795 19.823506,38.5410146 20.0475004,39.2112931 C19.7675074,38.8202973 19.543513,38.5410146 19.4315158,38.3175884 C19.2635199,38.0941622 19.0955241,37.9824491 18.8715297,37.9824491 C18.6475353,37.9265926 18.3115437,38.0383057 17.8635548,38.1500188 C16.9115786,38.4293015 16.0156009,38.8202973 15.1756218,39.2112931 C14.727633,39.4347193 14.2796441,39.714002 13.7756567,40.0491412 C13.2716693,40.3842805 12.9356776,40.8311328 12.8236804,41.2779852 C12.8236804,41.668981 12.879679,42.0599768 13.1036735,42.4509726 C13.3276679,42.8978249 13.5516623,43.2329642 13.8316553,43.5122469 C14.8956288,44.5176647 15.9596023,44.5176647 16.9675772,43.5681034 C17.135573,43.9032427 17.3595674,44.0708123 17.6395604,44.1825254 C17.9195534,44.2383819 18.1435479,44.4059516 18.3115437,44.6293777 C18.5355381,45.1320866 18.7595325,45.4672259 18.9835269,45.5230824 C19.2075213,45.578939 19.5995116,45.5230824 20.1594976,45.3555128 C20.2154962,45.4113693 20.383492,45.578939 20.6634851,45.8582217 C20.9434781,46.1375044 21.1674725,46.3609306 21.3354683,46.5285002 C21.7834572,46.7519264 22.3434432,46.919496 22.9034292,46.919496 C23.5194139,46.919496 24.0234013,46.6960698 24.5273888,46.3609306 C24.8073818,46.2492175 25.0313762,46.1933609 25.3113692,46.2492175 C25.5913623,46.305074 25.8153567,46.2492175 26.0393511,46.1375044 C26.3753427,45.8582217 26.7113343,45.6906521 26.9353288,45.578939 C27.1593232,45.4672259 27.4953148,45.4672259 27.9433036,45.4672259 C29.2312715,45.4672259 30.5192395,45.4672259 31.8072074,45.4113693 C32.6471864,45.4113693 33.4311669,45.578939 34.2151473,45.8582217 C34.9431292,46.1375044 35.6711111,46.5285002 36.3990929,46.919496 C36.1750985,47.3104918 35.9511041,47.7014876 35.6711111,48.0924834 C36.0631013,48.0924834 36.4550915,48.0366269 36.8470818,48.0366269 L36.8470818,48.5393357 L36.8470818,49.0420446 C37.1830734,48.8186185 37.5750636,48.6510488 38.0230525,48.4276227 C38.4710413,48.2041965 38.8630315,48.0924834 39.3110204,48.0924834 C39.5350148,48.0924834 39.8150078,48.2041965 40.0950008,48.3717661 C40.3749938,48.4834792 40.6549869,48.5951923 40.8789813,48.6510488 C41.3829687,48.8186185 41.9429548,48.9303315 42.5029408,48.9303315 C43.0629269,48.9861881 43.6229129,48.9861881 44.1269003,48.874475 C43.9029059,49.9357493 43.7349101,50.9970236 43.5109157,52.0024414 C43.3429199,53.0078592 43.1189255,54.0132769 42.9509297,55.0186947 C42.894931,55.1304078 42.894931,55.2979774 42.894931,55.5214036 C42.894931,55.7448298 42.8389324,55.9682559 42.8389324,56.1358256 L42.8389324,56.4709648 C42.4469422,56.7502475 42.054952,57.0295303 41.7189604,57.308813 C41.3829687,57.5880957 41.0469771,57.9232349 40.7669841,58.3142307 C40.5429897,58.7610831 40.3189952,59.2079354 40.1509994,59.6547878 C39.9830036,60.1016401 39.8150078,60.5484925 39.5910134,60.9953448 C39.367019,61.3863406 39.1430245,61.7773364 38.9190301,62.0566191 C38.6950357,62.3359018 38.4710413,62.7268976 38.3030455,63.1178934 C38.2470469,63.17375 38.1910483,63.2296065 38.1350497,63.2854631 C38.0790511,63.2854631 38.0230525,63.3413196 37.9670539,63.4530327 C37.9670539,63.5647458 37.9670539,63.6764589 38.0790511,63.8440285 C38.1350497,63.9557416 38.1910483,64.0674547 38.1910483,64.1791677 C38.0230525,64.6260201 37.799058,65.128729 37.4630664,65.5755813 C37.1270748,66.0224337 36.8470818,66.469286 36.5670887,66.8602818 C36.2870957,67.1395645 35.9511041,67.3629907 35.5031153,67.5305603 C35.0551264,67.6422734 34.7191348,67.9215561 34.6071376,68.2566954 C34.551139,68.4801215 34.6071376,68.6476912 34.6631362,68.7594043 C34.7751334,68.8711173 34.831132,69.038687 34.831132,69.2062566 C34.831132,69.4855393 34.7751334,69.7089655 34.6631362,69.9882482 C34.551139,70.2675309 34.4951404,70.5468136 34.3831432,70.7702398 C34.271146,71.1612356 34.1031501,71.4405183 33.7671585,71.6080879 C33.4871655,71.7756576 33.0951753,71.719801 32.703185,71.4963749 C32.3111948,71.1612356 32.0872004,70.7702398 31.9752032,70.3233875 C31.9192046,69.8765351 31.863206,69.3738262 31.8072074,68.8152608 C31.6952101,68.9269739 31.5832129,69.038687 31.4152171,69.2062566 C31.2472213,69.3179697 31.1352241,69.4296828 31.0232269,69.5413959 C30.8552311,68.5359781 30.6872353,67.4188472 30.4632408,66.1341467 C30.2392464,64.9053028 30.1832478,63.7881719 30.295245,62.7827542 C30.3512436,62.6151845 30.4632408,62.5034715 30.6872353,62.3359018 C30.8552311,62.1683322 30.9672283,62.0007626 30.9672283,61.7214799 C30.9672283,61.6656233 30.8552311,61.5539102 30.6312367,61.3863406 C30.4072422,61.218771 30.295245,60.9953448 30.2392464,60.7719186 C30.1832478,60.2133532 30.1272492,59.7106443 30.0712506,59.1520789 C30.015252,58.64937 29.7912576,58.2583742 29.3992674,57.9790915 C29.1192743,57.8115219 28.6152869,57.5880957 27.9993023,57.2529564 C27.327319,56.9178172 26.6553357,56.5268214 25.9833525,56.079969 C25.3113692,55.6331167 24.8073818,55.1304078 24.4713902,54.6835555 C24.1353985,54.2367031 24.1913971,53.7898508 24.5833874,53.398855 C23.8554055,53.4547115 23.4634153,53.2312853 23.3514181,52.784433 C23.2394209,52.2817241 23.2954195,51.7231587 23.5194139,51.1645933 C23.7434083,50.5501713 23.9114041,50.1033189 24.0793999,49.7681797 C24.1913971,49.5447535 24.2473957,49.4330404 24.1913971,49.3771839 C24.1353985,49.3213273 24.0234013,49.1537577 23.7994069,48.9861881 C23.6314111,48.8186185 23.5754125,48.6510488 23.5754125,48.4276227 C23.5754125,48.2041965 23.5754125,48.0924834 23.5194139,48.0366269 C23.2954195,47.8690572 23.0154264,47.7014876 22.6794348,47.5897745 C22.2874446,47.4780614 22.0074516,47.4222049 21.7274585,47.3104918 C20.6634851,46.9753525 19.543513,46.6960698 18.4235409,46.5843567 C17.3035688,46.4167871 16.2395953,46.1933609 15.2316204,45.9699348 C14.8396302,45.8582217 14.44764,45.7465086 14.1676469,45.6906521 C13.8876539,45.6347955 13.4956637,45.578939 13.0476748,45.5230824 C12.6556846,45.5230824 12.319693,45.4672259 11.9837014,45.2996563 C11.6477097,45.1320866 11.3677167,44.964517 11.0317251,44.7969474 C10.0237502,44.2383819 9.01577532,43.5122469 8.00780044,42.6185422 C7.05582417,41.7248375 6.04784929,40.8869894 5.03987441,40.1608543 C4.87187859,40.4959936 4.81587999,40.8311328 4.9838758,41.2221286 C5.15187161,41.5572679 5.31986743,41.9482637 5.59986045,42.2834029 C5.82385487,42.6185422 6.04784929,42.9536815 6.2158451,43.2329642 C5.87985347,42.7302553 5.43186464,42.2275464 4.9278772,41.8365506 C4.47988836,41.3896983 3.97590092,40.9987025 3.52791208,40.5518501 C3.07992325,40.1608543 2.57593581,39.7698585 1.95995116,39.4905758 C1.34396651,39.2112931 0.951976277,38.8202973 0.671983254,38.3175884 C0.391990232,37.5914533 0.223994418,36.6977487 0.167995814,35.6923309 C0.167995814,34.6869131 0.167995814,33.6814953 0.335991627,32.6760776 C0.447988836,31.6706598 0.559986045,30.7210986 0.671983254,29.939107 C1.11997209,27.2021364 1.90395255,24.5210223 3.02392464,22.0074779 C3.13592185,21.7281952 3.24791906,21.3930559 3.41591487,20.9462036 C3.58391069,20.4993512 3.80790511,20.0524989 4.03189952,19.6615031 C4.25589394,19.2146507 4.47988836,18.935368 4.70388278,18.7677984 C4.81587999,18.7119419 4.9838758,18.7119419 5.20787022,18.7677984 C5.43186464,18.8236549 5.59986045,18.8236549 5.71185766,18.7677984 C5.93585208,18.6560853 6.10384789,18.5443722 6.32784231,18.3768026 C6.55183673,18.209233 6.71983254,18.0416633 6.88782835,17.8740937 C7.22381998,17.6506675 7.61581021,17.3713848 7.95180184,17.0921021 C8.34379207,16.8128194 8.51178788,16.4776801 8.45578928,16.0308278 C8.6797837,16.3659671 9.01577532,16.6452498 9.57576137,16.8128194 C10.1357474,16.980389 10.5837363,17.0362456 10.9757265,16.980389 C11.1437223,16.8686759 11.2557195,16.7569629 11.2557195,16.5335367 C11.2557195,16.3101105 11.4237153,16.1983974 11.7037083,16.1425409 C12.3756916,16.0866843 13.0476748,15.9749713 13.7756567,15.9191147 C13.4956637,16.4218236 13.2156707,16.8686759 12.879679,17.2038152 C12.319693,17.8740937 11.6477097,18.3768026 10.9197279,18.8236549 C10.7517321,18.935368 10.5277376,19.0470811 10.3597418,19.1029377 C10.471739,19.2146507 10.5837363,19.3822204 10.6957335,19.4939335 C10.8077307,19.6615031 10.9197279,19.7732162 11.0317251,19.8849293 C10.5277376,20.2759251 10.191746,20.6110643 9.9677516,20.890347 C9.79975579,21.1696297 9.68775858,21.504769 9.68775858,21.8957648 L9.68775858,23.4038915 C9.68775858,23.5714611 9.85575439,23.8507438 10.0797488,24.1858831 C10.3037432,24.5210223 10.5277376,24.7444485 10.6957335,24.7444485 C11.2557195,24.6885919 11.6477097,24.6327354 11.9837014,24.6885919 C12.2636944,24.6885919 12.6556846,24.9120181 13.0476748,25.3030139 C13.3276679,25.5264401 13.5516623,25.5264401 13.7196581,25.3588705 C13.9436525,25.2471574 14.2236455,25.1354443 14.5596372,25.0795877 C14.8396302,25.0795877 15.1756218,25.2471574 15.5116134,25.5822966 C15.8476051,25.9174359 16.1275981,26.1967186 16.3515925,26.4201448 C16.6315855,26.5877144 16.85558,26.5318579 17.0795744,26.2525751 C17.3035688,26.029149 17.5275632,25.7498663 17.695559,25.4705835 C17.8635548,25.2471574 17.8635548,25.0795877 17.7515576,24.8561616 C17.6395604,24.6327354 17.6395604,24.4651658 17.6395604,24.2975961 C17.6395604,24.1300265 17.9195534,24.07417 18.4235409,24.0183134 C17.8635548,23.5714611 17.4715646,23.0128957 17.1915716,22.2867606 C16.9115786,21.6164821 16.9115786,21.0020601 17.135573,20.4993512 C17.5275632,20.2200685 18.0875493,20.1083554 19.0955241,20.3876381 M16.85558,29.5481112 C16.1275981,29.324685 15.5116134,29.2129719 15.1196232,29.2688285 C14.6716344,29.324685 14.3356428,29.4922546 13.9996511,29.7715373 C13.6636595,30.1066766 13.2716693,30.5535289 12.7116832,31.1679509 C13.1036735,31.279664 13.5516623,31.3355205 13.9996511,31.3355205 C14.44764,31.3355205 14.8396302,31.1679509 15.1756218,30.9445247 L15.1756218,31.9499425 C15.1196232,32.3409383 15.1756218,32.6760776 15.2316204,32.9553603 C15.3436176,33.234643 15.5116134,33.4580692 15.8476051,33.4580692 C16.1835967,33.4580692 16.4075911,33.3463561 16.4635897,33.0670734 C16.5755869,32.8436472 16.6315855,32.5085079 16.6315855,32.1175121 C16.6315855,31.7265163 16.6875841,31.4472336 16.6875841,31.1679509 C17.0235758,31.3355205 17.3595674,31.5030902 17.7515576,31.6706598 C17.975552,31.1120944 18.1435479,30.665242 18.2555451,30.3859593 C18.3675423,30.0508201 18.3115437,29.7715373 18.1435479,29.6598243 C17.9195534,29.4922546 17.5275632,29.4363981 16.85558,29.5481112 M20.4954892,30.665242 C20.5514879,30.3859593 20.6074865,30.0508201 20.5514879,29.7715373 C19.9355032,29.9949635 19.4315158,30.3301028 19.0395255,30.7210986 C18.6475353,31.1679509 18.2555451,31.6148033 17.9195534,32.1175121 C18.4235409,32.0057991 18.8715297,31.894086 19.3195186,31.7823729 C19.5995116,31.7265163 19.7675074,31.6148033 19.8795046,31.5030902 C19.9355032,31.5030902 19.9915018,31.4472336 19.9915018,31.4472336 C19.9915018,31.3913771 20.0475004,31.3355205 20.0475004,31.279664 C20.2714948,31.1679509 20.4394906,30.9445247 20.4954892,30.665242" id="Shape"></path>
                    <path d="M30.2392464,26.0850055 C30.5752381,26.1967186 30.8552311,26.3642882 31.1912227,26.5318579 C30.7432339,26.8111406 30.3512436,27.0904233 29.9032548,27.3138495 C29.7912576,27.0904233 29.6792604,26.9787102 29.6232618,26.9228537 C29.5672632,26.8669971 29.3992674,26.8111406 29.1752729,26.6994275 C29.5112646,26.4760013 29.9032548,26.2525751 30.2392464,26.0850055" id="Shape"></path>
                    <path d="M91.2392263,6.81246708 C91.2392263,3.60274701 91.1737279,3.07871109 89.405272,2.9477021 L88.6192916,2.88219761 C88.4227965,2.75118863 88.4882948,2.2271527 88.68479,2.09614372 C90.1912524,2.16164821 91.2392263,2.16164821 92.4836953,2.16164821 C93.7281643,2.16164821 94.7106398,2.16164821 96.2826006,2.09614372 C96.4790957,2.16164821 96.5445941,2.75118863 96.348099,2.88219761 L95.5621186,2.9477021 C93.7936626,3.07871109 93.7281643,3.60274701 93.7281643,6.81246708 L93.7281643,17.6207081 C93.7281643,20.8304282 93.7936626,21.2889596 95.5621186,21.4854731 L96.348099,21.5509776 C96.5445941,21.6819866 96.4790957,22.2060225 96.2826006,22.3370315 C94.7761382,22.271527 93.7281643,22.271527 92.4836953,22.271527 C91.1737279,22.271527 90.1912524,22.271527 88.68479,22.3370315 C88.4882948,22.271527 88.4227965,21.7474911 88.6192916,21.5509776 L89.405272,21.4854731 C91.1737279,21.2889596 91.2392263,20.8304282 91.2392263,17.6207081 L91.2392263,6.81246708 L91.2392263,6.81246708 Z" id="Shape"></path>
                    <path d="M114.032658,18.0792396 C114.032658,18.799789 114.032658,21.6819866 114.098157,22.3370315 C114.032658,22.4680405 113.901662,22.5990495 113.639668,22.5990495 C113.312176,22.2060225 112.657193,21.3544641 110.495746,18.9307979 L104.862887,12.5113578 C104.207903,11.7908084 102.570444,9.76016918 102.046457,9.23613326 L101.980959,9.23613326 C101.91546,9.49815122 101.849962,10.0876916 101.849962,10.808241 L101.849962,16.1141048 C101.849962,17.2276812 101.91546,20.4374012 102.30845,21.1579506 C102.504946,21.4199686 102.963434,21.5509776 103.552919,21.6164821 L104.273401,21.6819866 C104.404398,21.8785001 104.404398,22.140518 104.207903,22.271527 C103.094431,22.2060225 102.242952,22.2060225 101.391473,22.2060225 C100.343499,22.2060225 99.6885157,22.2060225 98.837037,22.271527 C98.6405419,22.140518 98.6405419,21.8129956 98.7715386,21.6819866 L99.4265223,21.6164821 C100.016008,21.5509776 100.408998,21.4199686 100.474496,21.1579506 C100.801988,20.3063923 100.801988,17.2931857 100.801988,16.1141048 L100.801988,9.10512427 C100.801988,8.45007936 100.801988,7.92604343 100.278001,7.33650301 C99.9505092,7.00898056 99.3610239,6.81246708 98.7715386,6.74696259 L98.3785484,6.6814581 C98.2475516,6.55044912 98.2475516,6.15742217 98.4440467,6.09191768 C99.4920206,6.15742217 100.73649,6.15742217 101.194978,6.15742217 C101.587968,6.15742217 101.980959,6.15742217 102.30845,6.09191768 C102.832437,7.33650301 105.714366,10.5462231 106.434848,11.463286 L108.792789,14.1489701 C110.430248,16.0486003 111.674717,17.3586902 112.788189,18.537771 L112.853688,18.537771 C112.919186,18.406762 112.919186,18.0137351 112.919186,17.4896991 L112.919186,12.3148443 C112.919186,11.201268 112.919186,7.99154792 112.460697,7.27099852 C112.329701,7.07448505 111.936711,6.87797157 110.954235,6.81246708 L110.561245,6.74696259 C110.36475,6.61595361 110.430248,6.22292666 110.626743,6.15742217 C111.740215,6.22292666 112.591694,6.22292666 113.508671,6.22292666 C114.556645,6.22292666 115.211629,6.22292666 115.997609,6.15742217 C116.194104,6.28843115 116.194104,6.61595361 116.063108,6.74696259 L115.735616,6.81246708 C114.949635,6.94347606 114.491147,7.13998954 114.36015,7.33650301 C113.96716,8.1880614 113.96716,11.201268 113.96716,12.3148443 L113.96716,18.0792396 L114.032658,18.0792396 Z" id="Shape"></path>
                    <path d="M126.215355,18.6032755 C126.215355,21.1579506 126.280853,21.4854731 127.656319,21.6164821 L128.442299,21.6819866 C128.573296,21.7474911 128.573296,22.2060225 128.376801,22.271527 C127.001335,22.2060225 126.149856,22.2060225 125.167381,22.2060225 C124.184905,22.2060225 123.333426,22.2060225 121.761466,22.271527 C121.630469,22.2060225 121.564971,21.7474911 121.761466,21.6819866 L122.612944,21.6164821 C123.98841,21.4854731 124.119407,21.1579506 124.119407,18.6032755 L124.119407,7.72952996 C124.119407,6.94347606 124.119407,6.94347606 123.398925,6.94347606 L122.088958,6.94347606 C121.040984,6.94347606 119.731016,7.00898056 119.076033,7.53301648 C118.486547,8.05705241 118.224554,8.58108834 117.96256,9.23613326 C117.766065,9.36714224 117.438573,9.23613326 117.307577,9.03961978 C117.700567,7.92604343 118.093557,6.41944013 118.224554,5.43687277 C118.290052,5.37136828 118.617544,5.37136828 118.683042,5.43687277 C118.814039,6.22292666 119.60002,6.15742217 120.713492,6.15742217 L130.538247,6.15742217 C131.848214,6.15742217 132.044709,6.09191768 132.4377,5.50237726 C132.568696,5.43687277 132.83069,5.50237726 132.896188,5.56788175 C132.634195,6.55044912 132.4377,8.51558385 132.503198,9.23613326 C132.372201,9.43264673 131.979211,9.43264673 131.848214,9.30163775 C131.782716,8.71209733 131.586221,7.79503445 131.258729,7.53301648 C130.669244,7.13998954 129.752267,6.94347606 128.442299,6.94347606 L126.739342,6.94347606 C126.01886,6.94347606 126.01886,6.94347606 126.01886,7.79503445 L126.01886,18.6032755 L126.215355,18.6032755 Z" id="Shape"></path>
                    <path d="M136.760592,9.82567368 C136.760592,7.27099852 136.695094,6.94347606 135.254129,6.74696259 L134.861139,6.6814581 C134.730142,6.55044912 134.795641,6.15742217 134.926638,6.09191768 C135.974611,6.15742217 136.82609,6.15742217 137.808566,6.15742217 L142.393452,6.15742217 C143.965412,6.15742217 145.406376,6.15742217 145.66837,6.09191768 C145.799367,6.48494463 145.930363,8.25356589 146.06136,9.30163775 C145.930363,9.43264673 145.602872,9.49815122 145.471875,9.36714224 C145.078885,8.25356589 144.882389,7.4020075 143.637921,7.07448505 C143.113934,6.94347606 142.327953,6.94347606 141.279979,6.94347606 L139.511523,6.94347606 C138.791041,6.94347606 138.791041,7.00898056 138.791041,7.92604343 L138.791041,12.7733758 C138.791041,13.4284207 138.85654,13.4284207 139.577022,13.4284207 L141.017986,13.4284207 C142.06596,13.4284207 142.786442,13.3629162 143.113934,13.2974117 C143.375927,13.1664027 143.572422,13.0353937 143.703419,12.4458533 L143.899914,11.463286 C144.030911,11.332277 144.423901,11.332277 144.554898,11.463286 C144.554898,12.0528264 144.489399,12.9698893 144.489399,13.9524566 C144.489399,14.804015 144.554898,15.7210779 144.554898,16.3106183 C144.489399,16.5071318 144.030911,16.5071318 143.899914,16.3106183 L143.703419,15.3935554 C143.637921,14.935024 143.441425,14.6075015 142.982937,14.4764925 C142.655445,14.4109881 142.06596,14.3454836 141.083484,14.3454836 L139.511523,14.3454836 C138.791041,14.3454836 138.725543,14.3454836 138.725543,15.0005285 L138.725543,18.406762 C138.725543,19.7168518 138.791041,20.5029057 139.184031,20.9614372 C139.446025,21.2234551 139.970012,21.5509776 142.131458,21.5509776 C144.030911,21.5509776 144.685894,21.4199686 145.27538,21.1579506 C145.733868,20.8959327 146.388852,20.0443743 146.978337,18.799789 C147.174832,18.66878 147.502324,18.7342845 147.567823,18.9963024 C147.371327,19.8478608 146.781842,21.7474911 146.45435,22.402536 C144.227406,22.3370315 142.06596,22.3370315 139.904514,22.3370315 L137.743067,22.3370315 C136.695094,22.3370315 135.843615,22.3370315 134.468149,22.402536 C134.337152,22.3370315 134.271654,21.9440045 134.402651,21.8129956 L135.188631,21.7474911 C136.564097,21.6164821 136.695094,21.2889596 136.695094,18.7342845 L136.695094,9.82567368 L136.760592,9.82567368 Z" id="Shape"></path>
                    <path d="M151.039236,9.82567368 C151.039236,7.53301648 150.973738,7.07448505 149.991262,7.00898056 L149.205282,6.87797157 C149.008787,6.74696259 149.008787,6.35393564 149.205282,6.28843115 C150.580747,6.15742217 152.218207,6.09191768 154.641646,6.09191768 C156.148109,6.09191768 157.589073,6.22292666 158.702545,6.81246708 C159.881516,7.4020075 160.732994,8.51558385 160.732994,10.2187006 C160.732994,12.5113578 158.89904,13.8214476 157.72007,14.2799791 C157.589073,14.4109881 157.72007,14.673006 157.851066,14.8695195 C159.816017,18.0137351 161.060486,19.9788698 162.763444,21.3544641 C163.156434,21.7474911 163.811418,22.009509 164.466401,22.009509 C164.597398,22.0750135 164.597398,22.271527 164.466401,22.3370315 C164.269906,22.402536 163.876916,22.4680405 163.418428,22.4680405 C161.387978,22.4680405 160.143509,21.8785001 158.375053,19.3893294 C157.72007,18.4722665 156.737594,16.8346542 156.017112,15.7210779 C155.624122,15.197042 155.29663,14.935024 154.314154,14.935024 C153.200682,14.935024 153.200682,14.935024 153.200682,15.4590599 L153.200682,18.537771 C153.200682,21.0924462 153.266181,21.3544641 154.641646,21.5509776 L155.165633,21.6164821 C155.29663,21.7474911 155.231132,22.140518 155.100135,22.2060225 C153.986663,22.140518 153.200682,22.140518 152.218207,22.140518 C151.170233,22.140518 150.318754,22.140518 149.205282,22.2060225 C149.074285,22.140518 149.008787,21.7474911 149.139783,21.6164821 L149.729269,21.5509776 C151.170233,21.3544641 151.170233,21.0924462 151.170233,18.537771 L151.170233,9.82567368 L151.039236,9.82567368 Z M153.004187,13.2974117 C153.004187,13.7559431 153.004187,14.0179611 153.069685,14.0834656 C153.135184,14.1489701 153.528174,14.2144746 154.772643,14.2144746 C155.624122,14.2144746 156.541099,14.0834656 157.261581,13.5594297 C157.916565,13.0353937 158.50605,12.1838354 158.50605,10.5462231 C158.50605,8.64659283 157.327079,6.81246708 154.641646,6.81246708 C153.135184,6.81246708 153.069685,6.87797157 153.069685,7.59852098 L153.069685,13.2974117 L153.004187,13.2974117 Z" id="Shape"></path>
                    <path d="M180.840993,18.0792396 C180.840993,18.799789 180.840993,21.6819866 180.906492,22.3370315 C180.840993,22.4680405 180.709997,22.5990495 180.448003,22.5990495 C180.18601,22.2060225 179.465528,21.3544641 177.36958,18.9307979 L171.73672,12.5113578 C171.081737,11.7908084 169.444277,9.76016918 168.92029,9.23613326 L168.854792,9.23613326 C168.789294,9.49815122 168.723795,10.0876916 168.723795,10.808241 L168.723795,16.1141048 C168.723795,17.2276812 168.789294,20.4374012 169.182284,21.1579506 C169.378779,21.4199686 169.837268,21.5509776 170.426753,21.6164821 L171.147235,21.6819866 C171.278232,21.8785001 171.278232,22.140518 171.081737,22.271527 C169.968264,22.2060225 169.116786,22.2060225 168.265307,22.2060225 C167.217333,22.2060225 166.562349,22.2060225 165.71087,22.271527 C165.514375,22.140518 165.514375,21.8129956 165.645372,21.6819866 L166.300356,21.6164821 C166.889841,21.5509776 167.282831,21.4199686 167.34833,21.1579506 C167.675821,20.3063923 167.675821,17.2931857 167.675821,16.1141048 L167.675821,9.10512427 C167.675821,8.45007936 167.675821,7.92604343 167.151835,7.33650301 C166.824343,7.00898056 166.234857,6.81246708 165.645372,6.74696259 L165.252382,6.6814581 C165.121385,6.55044912 165.121385,6.15742217 165.31788,6.09191768 C166.365854,6.15742217 167.610323,6.15742217 168.068812,6.15742217 C168.461802,6.15742217 168.854792,6.15742217 169.182284,6.09191768 C169.640773,7.33650301 172.588199,10.5462231 173.308681,11.463286 L175.666622,14.1489701 C177.304082,16.0486003 178.548551,17.3586902 179.662023,18.537771 L179.727521,18.537771 C179.858518,18.406762 179.858518,18.0137351 179.858518,17.4896991 L179.858518,12.3148443 C179.858518,11.201268 179.858518,7.99154792 179.400029,7.27099852 C179.269033,7.07448505 178.876042,6.87797157 177.893567,6.81246708 L177.500577,6.74696259 C177.304082,6.61595361 177.36958,6.22292666 177.566075,6.15742217 C178.679547,6.22292666 179.531026,6.22292666 180.448003,6.22292666 C181.495977,6.22292666 182.150961,6.22292666 182.936941,6.15742217 C183.133436,6.28843115 183.133436,6.61595361 183.00244,6.74696259 L182.674948,6.81246708 C181.888967,6.94347606 181.430479,7.13998954 181.299482,7.33650301 C180.906492,8.1880614 180.906492,11.201268 180.906492,12.3148443 L180.906492,18.0792396 L180.840993,18.0792396 Z" id="Shape"></path>
                    <path d="M193.547677,16.5726363 C193.351182,16.0486003 193.285683,15.9830958 192.565201,15.9830958 L188.897293,15.9830958 C188.307807,15.9830958 188.176811,16.0486003 187.980315,16.5726363 L187.128837,19.1273114 C186.735846,20.2408878 186.60485,20.8959327 186.60485,21.1579506 C186.60485,21.4199686 186.735846,21.6164821 187.325332,21.6164821 L188.111312,21.6819866 C188.307807,21.8129956 188.307807,22.2060225 188.045814,22.271527 C187.39083,22.2060225 186.670348,22.2060225 185.491378,22.2060225 C184.705397,22.2060225 183.78842,22.271527 183.133436,22.271527 C183.00244,22.140518 182.936941,21.7474911 183.067938,21.6819866 L183.853918,21.6164821 C184.443404,21.5509776 184.967391,21.2889596 185.294882,20.4374012 C185.753371,19.3238249 186.408355,17.7517171 187.456329,15.0005285 L189.945267,8.45007936 C190.272758,7.59852098 190.403755,7.13998954 190.338257,6.74696259 C190.927742,6.55044912 191.320732,6.15742217 191.582726,5.82989971 C191.713722,5.82989971 191.910218,5.89540421 191.975716,6.02641319 C192.303208,7.07448505 192.696198,8.1880614 193.02369,9.30163775 L196.364107,19.0618069 C197.084589,21.1579506 197.41208,21.4854731 198.460054,21.6164821 L199.115038,21.6819866 C199.311533,21.8129956 199.246035,22.2060225 199.115038,22.271527 C198.132562,22.2060225 197.281084,22.2060225 196.167611,22.2060225 C194.988641,22.2060225 194.071664,22.271527 193.351182,22.271527 C193.154687,22.140518 193.154687,21.7474911 193.285683,21.6819866 L194.006165,21.6164821 C194.530152,21.5509776 194.857644,21.4199686 194.857644,21.1579506 C194.857644,20.8959327 194.726647,20.4374012 194.530152,19.8478608 L193.547677,16.5726363 L193.547677,16.5726363 Z M188.766296,14.4109881 C188.569801,15.0005285 188.569801,15.0005285 189.290283,15.0005285 L192.303208,15.0005285 C193.02369,15.0005285 193.02369,14.935024 192.827195,14.2799791 L191.517227,10.2842051 C191.320732,9.69466469 191.124237,9.03961978 190.99324,8.77760182 L190.927742,8.77760182 C190.862244,8.9086108 190.60025,9.49815122 190.338257,10.2187006 L188.766296,14.4109881 L188.766296,14.4109881 Z" id="Shape"></path>
                    <path d="M206.843845,18.6032755 C206.843845,21.1579506 206.909344,21.4854731 208.284809,21.6164821 L209.07079,21.6819866 C209.201787,21.7474911 209.136288,22.2060225 209.005292,22.271527 C207.629826,22.2060225 206.778347,22.2060225 205.795872,22.2060225 C204.813396,22.2060225 203.961917,22.2060225 202.389956,22.271527 C202.25896,22.2060225 202.193461,21.7474911 202.389956,21.6819866 L203.241435,21.6164821 C204.616901,21.4854731 204.747898,21.1579506 204.747898,18.6032755 L204.747898,7.72952996 C204.747898,6.94347606 204.747898,6.94347606 204.027416,6.94347606 L202.717448,6.94347606 C201.669474,6.94347606 200.294009,7.00898056 199.704523,7.53301648 C199.115038,8.05705241 198.853045,8.58108834 198.591051,9.23613326 C198.394556,9.36714224 198.067064,9.23613326 197.936067,9.03961978 C198.329058,7.92604343 198.722048,6.41944013 198.853045,5.43687277 C198.918543,5.37136828 199.246035,5.37136828 199.311533,5.43687277 C199.44253,6.22292666 200.22851,6.15742217 201.407481,6.15742217 L211.232236,6.15742217 C212.542203,6.15742217 212.738698,6.09191768 213.131689,5.50237726 C213.262685,5.43687277 213.524679,5.50237726 213.590177,5.56788175 C213.328184,6.55044912 213.131689,8.51558385 213.197187,9.23613326 C213.131689,9.43264673 212.6732,9.43264673 212.542203,9.30163775 C212.476705,8.71209733 212.28021,7.79503445 211.952718,7.53301648 C211.363233,7.13998954 210.446256,6.94347606 209.136288,6.94347606 L207.433331,6.94347606 C206.712849,6.94347606 206.712849,6.94347606 206.712849,7.79503445 L206.712849,18.6032755 L206.843845,18.6032755 Z" id="Shape"></path>
                    <path d="M217.520079,9.89117817 C217.520079,7.33650301 217.454581,6.87797157 216.013617,6.74696259 L215.424132,6.6814581 C215.293135,6.55044912 215.293135,6.15742217 215.48963,6.09191768 C216.734099,6.15742217 217.520079,6.15742217 218.568053,6.15742217 C219.550529,6.15742217 220.336509,6.15742217 221.580978,6.09191768 C221.711975,6.15742217 221.777473,6.61595361 221.646477,6.6814581 L221.056991,6.74696259 C219.616027,6.87797157 219.550529,7.27099852 219.550529,9.89117817 L219.550529,18.537771 C219.550529,21.0924462 219.616027,21.4854731 221.056991,21.6164821 L221.646477,21.6819866 C221.777473,21.7474911 221.711975,22.2060225 221.580978,22.271527 C220.336509,22.2060225 219.550529,22.2060225 218.568053,22.2060225 C217.520079,22.2060225 216.734099,22.2060225 215.48963,22.271527 C215.358633,22.2060225 215.293135,21.8129956 215.424132,21.6819866 L216.013617,21.6164821 C217.454581,21.4199686 217.520079,21.0924462 217.520079,18.537771 L217.520079,9.89117817 L217.520079,9.89117817 Z" id="Shape"></path>
                    <path d="M223.152939,14.3454836 C223.152939,9.49815122 226.820848,5.76439522 231.798724,5.76439522 C237.431583,5.76439522 240.248013,9.82567368 240.248013,14.0834656 C240.248013,18.9963024 236.514606,22.5990495 231.798724,22.5990495 C226.427857,22.5990495 223.152939,18.7342845 223.152939,14.3454836 L223.152939,14.3454836 Z M237.824573,14.8695195 C237.824573,10.8737455 236.056117,6.55044912 231.405733,6.55044912 C228.851297,6.55044912 225.576379,8.25356589 225.576379,13.6249342 C225.576379,17.2276812 227.344835,21.8785001 232.126215,21.8785001 C235.008144,21.8785001 237.824573,19.6513474 237.824573,14.8695195 L237.824573,14.8695195 Z" id="Shape"></path>
                    <path d="M257.015595,18.0792396 C257.015595,18.799789 257.015595,21.6819866 257.081093,22.3370315 C257.015595,22.4680405 256.884598,22.5990495 256.622605,22.5990495 C256.295113,22.2060225 255.640129,21.3544641 253.478683,18.9307979 L247.845824,12.5113578 C247.19084,11.7908084 245.553381,9.76016918 245.029394,9.23613326 L244.963895,9.23613326 C244.898397,9.49815122 244.832899,10.0876916 244.832899,10.808241 L244.832899,16.1141048 C244.832899,17.2276812 244.898397,20.4374012 245.291387,21.1579506 C245.487882,21.4199686 245.946371,21.5509776 246.535856,21.6164821 L247.321837,21.6819866 C247.452833,21.8785001 247.452833,22.140518 247.256338,22.271527 C246.142866,22.2060225 245.291387,22.2060225 244.439908,22.2060225 C243.391935,22.2060225 242.736951,22.2060225 241.885472,22.271527 C241.754475,22.140518 241.688977,21.8129956 241.819974,21.6819866 L242.474957,21.6164821 C243.064443,21.5509776 243.391935,21.4199686 243.522931,21.1579506 C243.850423,20.3063923 243.850423,17.2931857 243.850423,16.1141048 L243.850423,9.10512427 C243.850423,8.45007936 243.850423,7.92604343 243.326436,7.33650301 C242.998944,7.00898056 242.409459,6.81246708 241.819974,6.74696259 L241.426984,6.6814581 C241.295987,6.55044912 241.295987,6.15742217 241.492482,6.09191768 C242.540456,6.15742217 243.784925,6.15742217 244.243413,6.15742217 C244.636404,6.15742217 245.029394,6.15742217 245.356886,6.09191768 C245.815374,7.33650301 248.762801,10.5462231 249.548781,11.463286 L251.906722,14.1489701 C253.544182,16.0486003 254.788651,17.3586902 255.902123,18.537771 L255.967621,18.537771 C256.03312,18.406762 256.03312,18.0137351 256.03312,17.4896991 L256.03312,12.3148443 C256.03312,11.201268 256.03312,7.99154792 255.574631,7.27099852 C255.443634,7.07448505 255.050644,6.87797157 254.068169,6.81246708 L253.675178,6.74696259 C253.478683,6.61595361 253.544182,6.22292666 253.740677,6.15742217 C254.854149,6.22292666 255.705628,6.22292666 256.622605,6.22292666 C257.670579,6.22292666 258.325562,6.22292666 259.111543,6.15742217 C259.308038,6.28843115 259.308038,6.61595361 259.177041,6.74696259 L258.849549,6.81246708 C258.063569,6.94347606 257.60508,7.13998954 257.474084,7.33650301 C257.081093,8.1880614 257.081093,11.201268 257.081093,12.3148443 L257.081093,18.0792396 L257.015595,18.0792396 Z" id="Shape"></path>
                    <path d="M269.787777,16.5726363 C269.591282,16.0486003 269.525783,15.9830958 268.805301,15.9830958 L265.137393,15.9830958 C264.547907,15.9830958 264.351412,16.0486003 264.220416,16.5726363 L263.368937,19.1273114 C262.975947,20.2408878 262.84495,20.8959327 262.84495,21.1579506 C262.84495,21.4199686 262.975947,21.6164821 263.565432,21.6164821 L264.351412,21.6819866 C264.547907,21.8129956 264.547907,22.2060225 264.285914,22.271527 C263.63093,22.2060225 262.910448,22.2060225 261.796976,22.2060225 C261.010996,22.2060225 260.094018,22.271527 259.439035,22.271527 C259.308038,22.140518 259.24254,21.7474911 259.373536,21.6819866 L260.159517,21.6164821 C260.749002,21.5509776 261.272989,21.2889596 261.600481,20.4374012 C262.058969,19.3238249 262.713953,17.7517171 263.761927,15.0005285 L266.250865,8.45007936 C266.578357,7.59852098 266.709354,7.13998954 266.643855,6.74696259 C267.23334,6.55044912 267.626331,6.15742217 267.888324,5.82989971 C268.019321,5.82989971 268.215816,5.89540421 268.281314,6.02641319 C268.608806,7.07448505 269.001796,8.1880614 269.329288,9.30163775 L272.669705,19.0618069 C273.390187,21.1579506 273.717679,21.4854731 274.765653,21.6164821 L275.420636,21.6819866 C275.617132,21.8129956 275.551633,22.2060225 275.420636,22.271527 C274.438161,22.2060225 273.586682,22.2060225 272.47321,22.2060225 C271.294239,22.2060225 270.377262,22.271527 269.65678,22.271527 C269.460285,22.140518 269.460285,21.7474911 269.591282,21.6819866 L270.311764,21.6164821 C270.835751,21.5509776 271.163243,21.4199686 271.163243,21.1579506 C271.163243,20.8959327 271.032246,20.4374012 270.835751,19.8478608 L269.787777,16.5726363 L269.787777,16.5726363 Z M264.940898,14.4109881 C264.744403,15.0005285 264.744403,15.0005285 265.464885,15.0005285 L268.477809,15.0005285 C269.198292,15.0005285 269.198292,14.935024 269.001796,14.2799791 L267.691829,10.2842051 C267.495334,9.69466469 267.298839,9.03961978 267.102344,8.77760182 L267.036845,8.77760182 C266.971347,8.9086108 266.709354,9.49815122 266.44736,10.2187006 L264.940898,14.4109881 L264.940898,14.4109881 Z" id="Shape"></path>
                    <path d="M279.023047,9.82567368 C279.023047,7.27099852 278.957548,6.87797157 277.451086,6.74696259 L276.861601,6.6814581 C276.730604,6.55044912 276.730604,6.15742217 276.927099,6.09191768 C278.302565,6.15742217 279.088545,6.15742217 280.071021,6.15742217 C281.053496,6.15742217 281.839476,6.15742217 283.083945,6.09191768 C283.214942,6.15742217 283.280441,6.61595361 283.149444,6.6814581 L282.559959,6.74696259 C281.118994,6.87797157 281.053496,7.27099852 281.053496,9.82567368 L281.053496,18.275753 C281.053496,19.7823563 281.118994,20.4374012 281.577483,20.8959327 C281.839476,21.1579506 282.297965,21.4854731 284.197418,21.4854731 C286.293365,21.4854731 286.751854,21.3544641 287.144844,21.1579506 C287.603333,20.8959327 288.258317,19.9788698 288.782303,18.7342845 C288.9133,18.6032755 289.371789,18.7342845 289.371789,18.8652935 C289.371789,19.1273114 288.716805,21.6164821 288.323815,22.271527 C287.079346,22.2060225 284.786903,22.2060225 282.297965,22.2060225 L280.071021,22.2060225 C279.023047,22.2060225 278.302565,22.2060225 276.927099,22.271527 C276.796102,22.2060225 276.730604,21.8129956 276.861601,21.6819866 L277.582083,21.6164821 C279.023047,21.4854731 279.023047,21.1579506 279.023047,18.6032755 L279.023047,9.82567368 L279.023047,9.82567368 Z" id="Shape"></path>
                    <path d="M94.1211545,47.0322247 C91.5667181,47.0322247 89.9292589,46.2461708 89.405272,45.9186483 C89.0122818,45.2636034 88.6192916,43.1019552 88.6192916,41.6608564 C88.7502883,41.4643429 89.2087769,41.3988384 89.3397736,41.5953519 C89.7982622,43.1674597 91.0427312,46.1151618 94.5796431,46.1151618 C97.1340794,46.1151618 98.3785484,44.412045 98.3785484,42.6434238 C98.3785484,41.3333339 98.1165549,39.8267306 95.8896104,38.3856318 L93.0076822,36.4860016 C91.5012198,35.5034342 89.7327638,33.734813 89.7327638,31.2456423 C89.7327638,28.3634447 91.9597083,26.005283 95.9551088,26.005283 C96.8720859,26.005283 97.9855582,26.136292 98.7715386,26.3983099 C99.1645288,26.4638144 99.6230174,26.5948234 99.8195125,26.5948234 C100.081506,27.3153728 100.343499,29.0184896 100.343499,30.3285794 C100.212503,30.5250929 99.7540141,30.5905974 99.557519,30.3940839 C99.1645288,28.9529851 98.31305,26.9878504 95.4311218,26.9878504 C92.4181969,26.9878504 91.8287116,28.9529851 91.8287116,30.3940839 C91.8287116,32.1627052 93.2696757,33.4072905 94.3831479,34.1278399 L96.8065876,35.6344432 C98.7060402,36.813524 100.605493,38.5821453 100.605493,41.4643429 C100.605493,44.7395675 98.1165549,47.0322247 94.1211545,47.0322247 L94.1211545,47.0322247 Z" id="Shape"></path>
                    <path d="M104.993884,34.1278399 C104.993884,31.5731647 104.928385,31.2456423 103.487421,31.0491288 L103.094431,30.9836243 C102.963434,30.9181198 103.028932,30.4595884 103.159929,30.3940839 C104.207903,30.4595884 105.059382,30.4595884 106.041857,30.4595884 L110.626743,30.4595884 C112.198704,30.4595884 113.639668,30.4595884 113.901662,30.3940839 C114.032658,30.7871109 114.163655,32.5557321 114.294652,33.603804 C114.229153,33.734813 113.836163,33.8003174 113.705166,33.6693085 C113.312176,32.5557321 113.115681,31.7041737 111.871212,31.3766513 C111.347225,31.2456423 110.561245,31.2456423 109.513271,31.2456423 L107.744815,31.2456423 C107.024333,31.2456423 107.024333,31.3111468 107.024333,32.2282097 L107.024333,37.075542 C107.024333,37.7305869 107.089831,37.7305869 107.810313,37.7305869 L109.251277,37.7305869 C110.299251,37.7305869 111.019733,37.6650824 111.347225,37.5995779 C111.609219,37.5340734 111.805714,37.33756 111.936711,36.7480195 L112.133206,35.7654522 C112.264202,35.6344432 112.657193,35.6344432 112.788189,35.7654522 C112.788189,36.3549926 112.722691,37.2720555 112.722691,38.2546228 C112.722691,39.1061812 112.788189,40.0232441 112.788189,40.6127845 C112.722691,40.809298 112.264202,40.809298 112.133206,40.6127845 L111.936711,39.6957216 C111.805714,39.2371902 111.674717,38.9096678 111.216228,38.7786588 C110.888737,38.7131543 110.299251,38.6476498 109.316776,38.6476498 L107.875812,38.6476498 C107.15533,38.6476498 107.089831,38.6476498 107.089831,39.3026947 L107.089831,42.7089282 C107.089831,44.0190181 107.15533,44.805072 107.54832,45.2636034 C107.810313,45.5256214 108.3343,45.8531438 110.495746,45.8531438 C112.395199,45.8531438 113.050183,45.7221348 113.639668,45.4601169 C114.098157,45.1980989 114.75314,44.3465405 115.342626,43.1019552 C115.539121,42.9709462 115.866613,43.0364507 115.932111,43.2984687 C115.735616,44.150027 115.146131,46.0496573 114.818639,46.7047022 C112.657193,46.6391977 110.495746,46.6391977 108.3343,46.6391977 L106.107356,46.6391977 C105.059382,46.6391977 104.207903,46.6391977 102.832437,46.7047022 C102.701441,46.6391977 102.635942,46.2461708 102.766939,46.1151618 L103.552919,46.0496573 C104.928385,45.9186483 105.059382,45.5911259 105.059382,43.0364507 L105.059382,34.1278399 L104.993884,34.1278399 Z" id="Shape"></path>
                    <path d="M119.338026,34.1278399 C119.338026,31.8351827 119.272528,31.3766513 118.290052,31.3111468 L117.504072,31.2456423 C117.307577,31.1146333 117.307577,30.7216064 117.504072,30.6561019 C118.879537,30.5250929 120.516997,30.4595884 122.940436,30.4595884 C124.446899,30.4595884 125.887863,30.5905974 127.001335,31.1801378 C128.180306,31.7696782 129.031784,32.8832546 129.031784,34.5863713 C129.031784,36.8790285 127.19783,38.1891184 126.01886,38.6476498 C125.887863,38.7786588 126.01886,39.0406767 126.149856,39.2371902 C128.114807,42.3814058 129.359276,44.3465405 131.062234,45.7221348 C131.455224,46.1151618 132.110208,46.3771797 132.765191,46.3771797 C132.896188,46.4426842 132.896188,46.6391977 132.765191,46.7047022 C132.568696,46.7702067 132.175706,46.8357112 131.717218,46.8357112 C129.62127,46.8357112 128.442299,46.2461708 126.673843,43.7570001 C126.01886,42.8399372 125.036384,41.2023249 124.315902,40.0887486 C123.922912,39.5647127 123.529922,39.3026947 122.612944,39.3026947 C121.499472,39.3026947 121.499472,39.3026947 121.499472,39.8267306 L121.499472,42.9054417 C121.499472,45.4601169 121.564971,45.7221348 122.940436,45.9186483 L123.464423,45.9841528 C123.59542,46.1151618 123.59542,46.5081887 123.398925,46.5736932 C122.285453,46.5081887 121.499472,46.5081887 120.516997,46.5081887 C119.469023,46.5081887 118.617544,46.5081887 117.504072,46.5736932 C117.373075,46.5081887 117.307577,46.1151618 117.438573,45.9841528 L118.028059,45.9186483 C119.403524,45.7221348 119.469023,45.4601169 119.469023,42.9054417 L119.469023,34.1278399 L119.338026,34.1278399 Z M121.302977,37.6650824 C121.302977,38.1236139 121.302977,38.3856318 121.368475,38.4511363 C121.433974,38.5166408 121.826964,38.5821453 123.071433,38.5821453 C123.922912,38.5821453 124.905387,38.5166408 125.560371,37.9271004 C126.215355,37.4030645 126.80484,36.5515061 126.80484,34.9138938 C126.80484,33.0142635 125.625869,31.1801378 122.940436,31.1801378 C121.433974,31.1801378 121.368475,31.3111468 121.368475,31.9661917 L121.368475,37.6650824 L121.302977,37.6650824 Z" id="Shape"></path>
                    <path d="M133.22368,33.079768 C132.634195,31.7041737 132.306703,31.1801378 131.258729,31.1146333 L130.80024,31.0491288 C130.603745,30.9181198 130.669244,30.5250929 130.865739,30.4595884 C131.586221,30.5250929 132.372201,30.5250929 133.420175,30.5250929 C134.468149,30.5250929 135.319628,30.5250929 136.367602,30.4595884 C136.564097,30.5250929 136.564097,30.9181198 136.4331,31.0491288 L136.04011,31.1146333 C135.123133,31.2456423 134.926638,31.3766513 134.926638,31.5731647 C134.992136,31.8351827 135.385126,33.1452725 136.171107,34.9793983 C137.284579,37.7960914 138.398051,40.6127845 139.64252,43.3639732 C140.363002,41.7263609 141.476474,39.2371902 142.000461,37.9926049 C142.720943,36.3549926 143.834416,33.603804 144.292904,32.5557321 C144.489399,32.0316962 144.489399,31.7696782 144.489399,31.6386692 C144.489399,31.4421558 144.227406,31.2456423 143.375927,31.1801378 L142.917438,31.1146333 C142.720943,30.9836243 142.786442,30.5905974 142.982937,30.5250929 C143.637921,30.5905974 144.620396,30.5905974 145.537373,30.5905974 C146.323354,30.5905974 147.109334,30.5905974 147.895314,30.5250929 C148.09181,30.5905974 148.09181,30.9836243 147.960813,31.1146333 L147.240331,31.1801378 C146.650845,31.2456423 146.257855,31.5076603 145.995862,32.0316962 C145.340878,33.1452725 144.358403,35.1759118 143.24493,37.5995779 L141.934963,40.6127845 C140.952487,42.8399372 139.839015,45.6566303 139.380527,46.9667202 C139.315028,47.0322247 139.184031,47.0322247 139.118533,47.0322247 C138.987536,47.0322247 138.85654,47.0322247 138.725543,46.9667202 C138.463549,45.9186483 138.070559,44.7395675 137.612071,43.7570001 L133.22368,33.079768 L133.22368,33.079768 Z" id="Shape"></path>
                    <path d="M151.30123,34.1933444 C151.30123,31.6386692 151.235731,31.1801378 149.794767,31.1146333 L149.205282,31.0491288 C149.074285,30.9836243 149.074285,30.5250929 149.27078,30.4595884 C150.515249,30.5250929 151.30123,30.5250929 152.349203,30.5250929 C153.331679,30.5250929 154.117659,30.5250929 155.362128,30.4595884 C155.493125,30.5250929 155.558623,30.9836243 155.427627,31.0491288 L154.838141,31.1146333 C153.397177,31.2456423 153.331679,31.6386692 153.331679,34.1933444 L153.331679,42.8399372 C153.331679,45.3946124 153.397177,45.7876393 154.838141,45.9186483 L155.427627,45.9841528 C155.558623,46.0496573 155.558623,46.5081887 155.362128,46.5736932 C154.117659,46.5081887 153.331679,46.5081887 152.349203,46.5081887 C151.30123,46.5081887 150.515249,46.5081887 149.27078,46.5736932 C149.139783,46.5081887 149.074285,46.1151618 149.205282,45.9841528 L149.794767,45.9186483 C151.235731,45.7221348 151.30123,45.3946124 151.30123,42.8399372 L151.30123,34.1933444 L151.30123,34.1933444 Z" id="Shape"></path>
                    <path d="M159.881516,32.1627052 C161.649972,30.7871109 163.942415,30.0665614 166.431352,30.0665614 C167.74132,30.0665614 169.575274,30.3285794 170.754245,30.6561019 C171.081737,30.7216064 171.212733,30.7871109 171.409228,30.7871109 C171.409228,31.3766513 171.540225,32.8832546 171.73672,34.3898579 C171.605724,34.5863713 171.278232,34.5863713 171.081737,34.4553624 C170.688746,32.8177501 169.640773,30.9181198 166.103861,30.9181198 C162.370454,30.9181198 159.226532,33.2762815 159.226532,38.3201273 C159.226532,43.4294776 162.435952,46.2461708 166.431352,46.2461708 C169.575274,46.2461708 170.95074,44.2155315 171.540225,42.7744327 C171.73672,42.6434238 172.064212,42.7089282 172.195209,42.9054417 C171.998714,44.150027 171.409228,45.7876393 171.016238,46.2461708 C170.754245,46.3116753 170.426753,46.3771797 170.164759,46.5081887 C169.640773,46.7047022 167.872317,47.0977292 166.300356,47.0977292 C164.13891,47.0977292 162.042962,46.6391977 160.274506,45.4601169 C158.309555,44.150027 156.803092,41.9228743 156.803092,38.7786588 C156.803092,35.8964612 158.047561,33.603804 159.881516,32.1627052 L159.881516,32.1627052 Z" id="Shape"></path>
                    <path d="M175.797619,34.1278399 C175.797619,31.5731647 175.732121,31.2456423 174.291157,31.0491288 L173.898166,30.9836243 C173.76717,30.9181198 173.76717,30.4595884 173.963665,30.3940839 C175.011639,30.4595884 175.863117,30.4595884 176.845593,30.4595884 L181.430479,30.4595884 C183.00244,30.4595884 184.443404,30.4595884 184.705397,30.3940839 C184.836394,30.7871109 185.032889,32.5557321 185.098387,33.603804 C185.032889,33.734813 184.639899,33.8003174 184.508902,33.6693085 C184.115912,32.5557321 183.919417,31.7041737 182.674948,31.3766513 C182.150961,31.2456423 181.36498,31.2456423 180.317006,31.2456423 L178.548551,31.2456423 C177.828068,31.2456423 177.828068,31.3111468 177.828068,32.2282097 L177.828068,37.075542 C177.828068,37.7305869 177.893567,37.7305869 178.614049,37.7305869 L180.055013,37.7305869 C181.102987,37.7305869 181.823469,37.6650824 182.150961,37.5995779 C182.412954,37.5340734 182.609449,37.33756 182.740446,36.7480195 L182.936941,35.7654522 C183.067938,35.6344432 183.460928,35.6344432 183.591925,35.7654522 C183.591925,36.3549926 183.526426,37.2720555 183.526426,38.2546228 C183.526426,39.1061812 183.591925,40.0232441 183.591925,40.6127845 C183.526426,40.809298 183.067938,40.809298 182.936941,40.6127845 L182.740446,39.6957216 C182.609449,39.2371902 182.478453,38.9096678 182.019964,38.7786588 C181.692472,38.7131543 181.102987,38.6476498 180.120511,38.6476498 L178.679547,38.6476498 C177.959065,38.6476498 177.893567,38.6476498 177.893567,39.3026947 L177.893567,42.7089282 C177.893567,44.0190181 177.959065,44.805072 178.352055,45.2636034 C178.679547,45.5256214 179.138036,45.8531438 181.299482,45.8531438 C183.198935,45.8531438 183.853918,45.7221348 184.377905,45.4601169 C184.836394,45.1980989 185.491378,44.3465405 186.080863,43.1019552 C186.277358,42.9709462 186.60485,43.0364507 186.670348,43.2984687 C186.473853,44.150027 185.884368,46.0496573 185.556876,46.7047022 C183.39543,46.6391977 181.233984,46.6391977 179.072537,46.6391977 L176.845593,46.6391977 C175.797619,46.6391977 174.94614,46.6391977 173.570675,46.7047022 C173.439678,46.6391977 173.374179,46.2461708 173.505176,46.1151618 L174.291157,46.0496573 C175.666622,45.9186483 175.797619,45.5911259 175.797619,43.0364507 L175.797619,34.1278399 L175.797619,34.1278399 Z" id="Shape"></path>
                    <path d="M91.2392263,55.351295 C91.2392263,52.141575 91.1737279,51.6830435 89.2742753,51.4865301 L88.4882948,51.4210256 C88.2917997,51.2900166 88.3572981,50.7659807 88.5537932,50.6349717 C90.2567508,50.7004762 91.3047247,50.7004762 92.4836953,50.7004762 C93.6626659,50.7004762 94.7106398,50.7004762 96.2171022,50.6349717 C96.4135973,50.7004762 96.4790957,51.2900166 96.2826006,51.4210256 L95.5621186,51.4865301 C93.7936626,51.617539 93.7281643,52.141575 93.7281643,55.351295 L93.7281643,65.8975181 C93.7281643,67.7971484 93.7936626,68.5832023 94.3831479,69.1727427 C94.7106398,69.5002651 95.3001251,69.8932921 97.7235647,69.8932921 C100.343499,69.8932921 100.932985,69.7622831 101.456972,69.5002651 C102.046457,69.1072382 102.832437,68.0591663 103.487421,66.4870585 C103.683916,66.3560496 104.273401,66.421554 104.273401,66.683572 C104.273401,67.0110945 103.421923,70.0898056 103.028932,70.9413639 C101.456972,70.8758594 98.5750435,70.8758594 95.4311218,70.8758594 L92.614692,70.8758594 C91.3047247,70.8758594 90.3877475,70.9413639 88.68479,70.9413639 C88.4882948,70.8758594 88.4227965,70.3518235 88.6192916,70.15531 L89.5362687,70.0898056 C91.3047247,69.8932921 91.370223,69.5002651 91.370223,66.2905451 L91.370223,55.351295 L91.2392263,55.351295 Z" id="Shape"></path>
                    <path d="M107.810313,58.4300061 C107.810313,55.875331 107.744815,55.5478085 106.303851,55.351295 L105.910861,55.2857905 C105.779864,55.2202861 105.845362,54.7617546 105.976359,54.6962501 C107.024333,54.7617546 107.875812,54.7617546 108.858287,54.7617546 L113.443173,54.7617546 C115.015134,54.7617546 116.456098,54.7617546 116.718091,54.6962501 C116.849088,55.0892771 117.045583,56.8578983 117.111082,57.9059702 C116.980085,58.0369792 116.587095,58.1024837 116.521596,57.9714747 C116.128606,56.8578983 115.932111,56.00634 114.687642,55.6788175 C114.163655,55.5478085 113.377675,55.5478085 112.329701,55.5478085 L110.561245,55.5478085 C109.840763,55.5478085 109.840763,55.613313 109.840763,56.5303759 L109.840763,61.3777082 C109.840763,62.0327531 109.906261,62.0327531 110.626743,62.0327531 L112.067707,62.0327531 C113.115681,62.0327531 113.836163,61.9672486 114.163655,61.9017442 C114.425648,61.8362397 114.622144,61.6397262 114.75314,61.0501858 L114.949635,60.0676184 C115.080632,59.9366094 115.473622,59.9366094 115.604619,60.0676184 C115.604619,60.6571588 115.539121,61.5742217 115.539121,62.5567891 C115.539121,63.4083475 115.604619,64.3909148 115.604619,64.9149507 C115.539121,65.1114642 115.080632,65.1114642 114.949635,64.9149507 L114.75314,63.9978879 C114.622144,63.5393564 114.491147,63.211834 113.96716,63.080825 C113.639668,62.949816 113.050183,62.949816 112.067707,62.949816 L110.626743,62.949816 C109.906261,62.949816 109.840763,62.949816 109.840763,63.6048609 L109.840763,67.0110945 C109.840763,68.3211843 109.906261,69.1072382 110.299251,69.5657696 C110.626743,69.8277876 111.085232,70.15531 113.246678,70.15531 C115.146131,70.15531 115.801114,70.0243011 116.325101,69.7622831 C116.78359,69.5002651 117.438573,68.6487067 118.028059,67.4041214 C118.224554,67.2731124 118.552046,67.3386169 118.617544,67.6006349 C118.421049,68.4521933 117.831564,70.3518235 117.504072,71.0068684 C115.342626,70.9413639 113.181179,70.9413639 111.019733,70.9413639 L108.858287,70.9413639 C107.810313,70.9413639 106.958835,70.9413639 105.583369,71.0068684 C105.452372,70.9413639 105.386874,70.548337 105.51787,70.417328 L106.303851,70.3518235 C107.679317,70.2208145 107.810313,69.8932921 107.810313,67.3386169 L107.810313,58.4300061 L107.810313,58.4300061 Z" id="Shape"></path>
                    <path d="M129.686768,65.1769687 C129.490273,64.6529328 129.424775,64.5874283 128.704293,64.5874283 L125.036384,64.5874283 C124.446899,64.5874283 124.250404,64.6529328 124.119407,65.1769687 L123.267928,67.7316439 C122.874938,68.8452202 122.743941,69.5002651 122.743941,69.7622831 C122.743941,70.0243011 122.874938,70.2208145 123.464423,70.2208145 L124.250404,70.286319 C124.446899,70.417328 124.446899,70.810355 124.184905,70.8758594 C123.529922,70.810355 122.80944,70.810355 121.630469,70.810355 C120.844489,70.810355 119.927511,70.8758594 119.272528,70.8758594 C119.141531,70.7448505 119.076033,70.3518235 119.207029,70.286319 L119.99301,70.2208145 C120.582495,70.15531 121.106482,69.8932921 121.433974,69.0417337 C121.892462,67.9281573 122.547446,66.3560496 123.59542,63.6048609 L126.084358,57.0544118 C126.41185,56.2028534 126.542847,55.744322 126.477348,55.351295 C127.066833,55.1547816 127.459824,54.7617546 127.721817,54.4342322 C127.852814,54.4342322 128.049309,54.4997367 128.114807,54.6307456 C128.442299,55.6788175 128.835289,56.7923938 129.162781,57.9059702 L132.503198,67.6661394 C133.22368,69.7622831 133.551172,70.0898056 134.599146,70.2208145 L135.254129,70.286319 C135.450625,70.417328 135.385126,70.810355 135.254129,70.8758594 C134.271654,70.810355 133.420175,70.810355 132.306703,70.810355 C131.127732,70.810355 130.210755,70.8758594 129.490273,70.8758594 C129.293778,70.7448505 129.293778,70.3518235 129.424775,70.286319 L130.145257,70.2208145 C130.669244,70.15531 130.996736,70.0243011 130.996736,69.7622831 C130.996736,69.5002651 130.865739,69.0417337 130.669244,68.4521933 L129.686768,65.1769687 L129.686768,65.1769687 Z M124.839889,63.0153205 C124.643394,63.6048609 124.643394,63.6048609 125.363876,63.6048609 L128.376801,63.6048609 C129.097283,63.6048609 129.097283,63.4738519 128.900788,62.818807 L127.59082,58.8885376 C127.394325,58.2989971 127.19783,57.6439522 127.001335,57.3819343 L126.935837,57.3819343 C126.870338,57.5129432 126.608345,58.1024837 126.346351,58.8230331 L124.839889,63.0153205 L124.839889,63.0153205 Z" id="Shape"></path>
                    <path d="M138.85654,58.4955106 C138.85654,56.2028534 138.791041,55.744322 137.808566,55.613313 L137.022585,55.482304 C136.82609,55.351295 136.82609,54.9582681 137.022585,54.8927636 C138.398051,54.7617546 140.03551,54.6962501 142.45895,54.6962501 C143.965412,54.6962501 145.406376,54.8272591 146.519849,55.4167995 C147.698819,56.00634 148.550298,57.1199163 148.550298,58.8230331 C148.550298,61.1156903 146.716344,62.4257801 145.537373,62.8843115 C145.406376,63.0153205 145.537373,63.2773385 145.66837,63.4738519 C147.633321,66.6180675 148.87779,68.5832023 150.580747,69.9587966 C150.973738,70.3518235 151.628721,70.6138415 152.283705,70.6138415 C152.414702,70.679346 152.414702,70.8758594 152.283705,70.9413639 C152.08721,71.0068684 151.69422,71.0723729 151.235731,71.0723729 C149.139783,71.0723729 147.895314,70.4828325 146.192357,67.9936618 C145.537373,67.076599 144.554898,65.4389867 143.834416,64.3254103 C143.441425,63.8013744 143.113934,63.5393564 142.131458,63.5393564 C141.017986,63.5393564 141.017986,63.5393564 141.017986,64.0633924 L141.017986,67.1421034 C141.017986,69.6967786 141.083484,69.9587966 142.45895,70.15531 L142.982937,70.2208145 C143.113934,70.3518235 143.048435,70.7448505 142.917438,70.810355 C141.803966,70.7448505 141.017986,70.7448505 140.03551,70.7448505 C138.987536,70.7448505 138.136058,70.7448505 137.022585,70.810355 C136.891589,70.7448505 136.82609,70.3518235 136.957087,70.2208145 L137.546572,70.15531 C138.922038,69.9587966 138.987536,69.6967786 138.987536,67.1421034 L138.987536,58.4955106 L138.85654,58.4955106 Z M140.886989,61.9672486 C140.886989,62.4257801 140.886989,62.6877981 140.952487,62.7533025 C141.017986,62.818807 141.410976,62.8843115 142.655445,62.8843115 C143.506924,62.8843115 144.423901,62.818807 145.144383,62.2292666 C145.799367,61.7052307 146.388852,60.8536723 146.388852,59.21606 C146.388852,57.3164298 145.209881,55.482304 142.524448,55.482304 C141.017986,55.482304 140.952487,55.5478085 140.952487,56.2683579 L140.952487,61.9672486 L140.886989,61.9672486 Z" id="Shape"></path>
                    <path d="M168.658297,66.683572 C168.658297,67.4041214 168.658297,70.286319 168.723795,70.9413639 C168.658297,71.0723729 168.5273,71.2033819 168.265307,71.2033819 C167.937815,70.810355 167.282831,69.9587966 165.121385,67.5351304 L159.488526,61.1156903 C158.833542,60.3296364 157.196083,58.3645016 156.672096,57.8404657 L156.606597,57.8404657 C156.541099,58.1024837 156.475601,58.6920241 156.475601,59.4125735 L156.475601,64.7184373 C156.475601,65.8320136 156.541099,69.0417337 156.934089,69.7622831 C157.130584,70.0243011 157.589073,70.15531 158.178558,70.2208145 L158.89904,70.286319 C159.030037,70.4828325 159.030037,70.7448505 158.833542,70.8758594 C157.72007,70.810355 156.868591,70.810355 155.951614,70.810355 C154.90364,70.810355 154.248656,70.810355 153.397177,70.8758594 C153.200682,70.7448505 153.200682,70.417328 153.331679,70.286319 L153.986663,70.2208145 C154.576148,70.15531 154.90364,70.0243011 155.034636,69.7622831 C155.362128,68.9107247 155.362128,65.8975181 155.362128,64.7184373 L155.362128,57.7094567 C155.362128,57.0544118 155.362128,56.5303759 154.838141,55.9408355 C154.51065,55.613313 153.921164,55.4167995 153.331679,55.351295 L152.938689,55.2857905 C152.807692,55.1547816 152.807692,54.7617546 153.004187,54.6962501 C154.052161,54.7617546 155.29663,54.7617546 155.755119,54.7617546 C156.148109,54.7617546 156.541099,54.7617546 156.868591,54.6962501 C157.327079,55.9408355 160.274506,59.1505555 160.994988,60.0676184 L163.352929,62.7533025 C164.990388,64.6529328 166.234857,65.9630226 167.34833,67.1421034 L167.413828,67.1421034 C167.544825,67.0110945 167.544825,66.6180675 167.544825,66.0940316 L167.544825,60.9191768 C167.544825,59.8056004 167.544825,56.5958804 167.086336,55.875331 C166.955339,55.6788175 166.562349,55.482304 165.579874,55.351295 L165.186883,55.2857905 C164.990388,55.1547816 165.055887,54.7617546 165.252382,54.6962501 C166.365854,54.7617546 167.217333,54.7617546 168.13431,54.7617546 C169.182284,54.7617546 169.837268,54.7617546 170.623248,54.6962501 C170.819743,54.8272591 170.819743,55.1547816 170.688746,55.2857905 L170.361255,55.351295 C169.575274,55.482304 169.116786,55.6788175 168.985789,55.875331 C168.592799,56.7268894 168.592799,59.7400959 168.592799,60.8536723 L168.592799,66.683572 L168.658297,66.683572 Z" id="Shape"></path>
                    <path d="M174.94614,58.4955106 C174.94614,55.9408355 174.880642,55.482304 173.439678,55.351295 L172.850193,55.2857905 C172.719196,55.2202861 172.719196,54.7617546 172.915691,54.6962501 C174.16016,54.7617546 174.94614,54.7617546 175.994114,54.7617546 C176.97659,54.7617546 177.828068,54.7617546 179.007039,54.6962501 C179.138036,54.7617546 179.203534,55.2202861 179.072537,55.2857905 L178.483052,55.351295 C177.042088,55.482304 176.97659,55.875331 176.97659,58.4955106 L176.97659,67.1421034 C176.97659,69.6967786 177.042088,70.0898056 178.483052,70.2208145 L179.072537,70.286319 C179.203534,70.417328 179.203534,70.810355 179.007039,70.8758594 C177.76257,70.810355 176.97659,70.810355 175.994114,70.810355 C174.94614,70.810355 174.16016,70.810355 172.915691,70.8758594 C172.784694,70.810355 172.719196,70.417328 172.850193,70.286319 L173.439678,70.2208145 C174.880642,70.0243011 174.94614,69.6967786 174.94614,67.1421034 L174.94614,58.4955106 L174.94614,58.4955106 Z" id="Shape"></path>
                    <path d="M196.560602,66.683572 C196.560602,67.4041214 196.560602,70.286319 196.6261,70.9413639 C196.560602,71.0723729 196.429605,71.2033819 196.167611,71.2033819 C195.84012,70.810355 195.185136,69.9587966 193.02369,67.5351304 L187.39083,61.1156903 C186.735846,60.3296364 185.098387,58.3645016 184.5744,57.8404657 L184.508902,57.8404657 C184.443404,58.1024837 184.377905,58.6920241 184.377905,59.4125735 L184.377905,64.7184373 C184.377905,65.8320136 184.443404,69.0417337 184.836394,69.7622831 C185.032889,70.0243011 185.491378,70.15531 186.080863,70.2208145 L186.801345,70.286319 C186.932342,70.4828325 186.932342,70.7448505 186.735846,70.8758594 C185.622374,70.810355 184.770895,70.810355 183.919417,70.810355 C182.871443,70.810355 182.216459,70.810355 181.36498,70.8758594 C181.168485,70.7448505 181.168485,70.417328 181.299482,70.286319 L181.954466,70.2208145 C182.543951,70.15531 182.871443,70.0243011 183.00244,69.7622831 C183.329931,68.9107247 183.329931,65.8975181 183.329931,64.7184373 L183.329931,57.7094567 C183.329931,57.0544118 183.329931,56.5303759 182.805944,55.9408355 C182.478453,55.613313 181.888967,55.4167995 181.299482,55.351295 L180.906492,55.2857905 C180.775495,55.1547816 180.775495,54.7617546 180.97199,54.6962501 C182.019964,54.7617546 183.264433,54.7617546 183.722922,54.7617546 C184.115912,54.7617546 184.508902,54.7617546 184.836394,54.6962501 C185.294882,55.9408355 188.242309,59.1505555 188.962791,60.0676184 L191.320732,62.7533025 C192.958191,64.6529328 194.20266,65.9630226 195.316133,67.1421034 L195.381631,67.1421034 C195.512628,67.0110945 195.512628,66.6180675 195.512628,66.0940316 L195.512628,60.9191768 C195.512628,59.8056004 195.512628,56.5958804 195.054139,55.875331 C194.923142,55.6788175 194.530152,55.482304 193.547677,55.351295 L193.154687,55.2857905 C192.958191,55.1547816 193.02369,54.7617546 193.220185,54.6962501 C194.333657,54.7617546 195.185136,54.7617546 196.102113,54.7617546 C197.150087,54.7617546 197.739572,54.7617546 198.591051,54.6962501 C198.787546,54.8272591 198.787546,55.1547816 198.656549,55.2857905 L198.329058,55.351295 C197.543077,55.482304 197.084589,55.6788175 196.953592,55.875331 C196.560602,56.7268894 196.560602,59.7400959 196.560602,60.8536723 L196.560602,66.683572 L196.560602,66.683572 Z" id="Shape"></path>
                    <path d="M214.638151,68.3866888 C214.638151,69.3692561 214.769148,69.9587966 215.227636,70.0898056 C215.293135,70.15531 215.293135,70.286319 215.227636,70.3518235 C214.900145,70.3518235 214.507154,70.417328 214.048666,70.548337 C212.738698,70.8758594 211.035741,71.2033819 209.725774,71.2033819 C206.843845,71.2033819 204.158412,70.417328 202.324458,68.5176978 C200.883494,67.076599 200.097514,65.1114642 200.097514,63.0153205 C200.097514,60.9191768 200.752497,58.8885376 202.25896,57.2509253 C203.896419,55.5478085 206.319858,54.4342322 209.987767,54.4342322 C211.363233,54.4342322 212.6732,54.6962501 213.06619,54.8272591 C213.524679,54.9582681 214.310659,55.0892771 214.572653,55.0237726 C214.572653,55.8098265 214.70365,57.1199163 214.965643,58.5610151 C214.900145,58.7575286 214.441656,58.7575286 214.310659,58.6265196 C213.655676,56.00634 211.821721,55.1547816 209.332783,55.1547816 C204.616901,55.1547816 202.586451,58.4955106 202.586451,62.1637621 C202.586451,66.814581 205.009891,70.4828325 209.85677,70.4828325 C211.363233,70.4828325 212.28021,70.15531 212.542203,69.7622831 C212.6732,69.5657696 212.804197,69.1727427 212.804197,68.3866888 L212.804197,67.4041214 C212.804197,65.3734822 212.738698,65.2424732 211.232236,65.0459597 L210.184262,64.9149507 C209.987767,64.8494463 209.987767,64.3909148 210.184262,64.3254103 C210.904744,64.3909148 212.214712,64.3909148 213.655676,64.3909148 C214.572653,64.3909148 215.424132,64.3909148 216.210112,64.3254103 C216.406607,64.4564193 216.406607,64.7839418 216.210112,64.9149507 L215.817122,64.9804552 C214.769148,65.1114642 214.769148,65.7665091 214.769148,67.0110945 L214.769148,68.3866888 L214.638151,68.3866888 Z" id="Shape"></path>
                </g>
            </g>
        </g>
    </g>
</svg>